<svg width="500" height="500" viewBox="0 0 500 500" fill="none" xmlns="http://www.w3.org/2000/svg">
<g clip-path="url(#clip0_31_3)">
<path d="M0 359.37V484.37C0 493 7 499.99 15.62 499.99H140.62C149.25 499.99 156.24 492.99 156.24 484.37V359.37C156.24 350.74 149.24 343.75 140.62 343.75H15.62C6.99 343.75 0 350.74 0 359.37ZM109.38 468.75H46.88C38.25 468.75 31.26 461.75 31.26 453.13V390.63C31.26 382 38.26 375.01 46.88 375.01H109.38C118.01 375.01 125 382.01 125 390.63V453.13C125 461.76 118 468.75 109.38 468.75Z" fill="black"/>
<path d="M78.13 406.25H78.12C69.4933 406.25 62.5 413.243 62.5 421.87V421.88C62.5 430.507 69.4933 437.5 78.12 437.5H78.13C86.7567 437.5 93.75 430.507 93.75 421.88V421.87C93.75 413.243 86.7567 406.25 78.13 406.25Z" fill="black"/>
<path d="M187.5 296.87V296.99C187.5 305.59 180.53 312.55 171.94 312.55H109.32C100.72 312.55 93.76 305.58 93.76 296.99C93.76 288.39 86.79 281.42 78.2 281.42H15.56C6.97 281.43 0 274.46 0 265.86V234.43C0 225.83 6.97 218.87 15.56 218.87H15.68C24.28 218.87 31.24 225.84 31.24 234.43V234.61C31.24 243.21 38.21 250.17 46.8 250.17H109.42C118.02 250.17 124.98 257.14 124.98 265.73C124.98 274.33 131.95 281.3 140.54 281.3H171.91C180.51 281.3 187.47 288.27 187.47 296.86L187.5 296.87Z" fill="black"/>
<path d="M78.13 187.56H46.87C38.2433 187.56 31.25 194.553 31.25 203.18V203.19C31.25 211.817 38.2433 218.81 46.87 218.81H78.13C86.7567 218.81 93.75 211.817 93.75 203.19V203.18C93.75 194.553 86.7567 187.56 78.13 187.56Z" fill="black"/>
<path d="M78.13 62.56H78.12C69.4933 62.56 62.5 69.5533 62.5 78.18V78.19C62.5 86.8167 69.4933 93.81 78.12 93.81H78.13C86.7567 93.81 93.75 86.8167 93.75 78.19V78.18C93.75 69.5533 86.7567 62.56 78.13 62.56Z" fill="black"/>
<path d="M0 15.68V140.68C0 149.31 7 156.3 15.62 156.3H140.62C149.25 156.3 156.24 149.3 156.24 140.68V15.68C156.24 7.05 149.24 0.0599976 140.62 0.0599976H15.62C6.99 0.0599976 0 7.05 0 15.68ZM109.38 125.06H46.88C38.25 125.06 31.26 118.06 31.26 109.44V46.94C31.26 38.31 38.26 31.32 46.88 31.32H109.38C118.01 31.32 125 38.32 125 46.94V109.44C125 118.07 118 125.06 109.38 125.06Z" fill="black"/>
<path d="M312.5 15.68V78.18C312.5 86.81 305.5 93.8 296.88 93.8H203.13C194.5 93.8 187.51 86.8 187.51 78.18V15.68C187.51 7.05 194.51 0.0599976 203.13 0.0599976H234.38C243.01 0.0599976 250 7.06 250 15.68C250 24.31 243 31.31 234.38 31.31C225.75 31.31 218.76 38.31 218.76 46.93C218.76 55.56 225.76 62.56 234.38 62.56H265.63C274.26 62.56 281.25 55.56 281.25 46.94V15.68C281.25 7.05 288.25 0.0599976 296.87 0.0599976C305.5 0.0599976 312.49 7.06 312.49 15.68H312.5Z" fill="black"/>
<path d="M281.25 484.36V484.39C281.25 493.01 274.26 500 265.64 500H203.11C194.49 500 187.5 493.01 187.5 484.39V390.61C187.5 381.99 194.49 375 203.11 375H203.14C211.76 375 218.75 381.99 218.75 390.61V453.11C218.75 461.73 225.74 468.72 234.36 468.72H250V468.75H265.64C274.26 468.75 281.25 475.74 281.25 484.36Z" fill="black"/>
<path d="M312.5 171.93C312.5 180.56 305.5 187.56 296.88 187.56C288.25 187.56 281.26 194.56 281.26 203.18C281.26 211.81 274.26 218.81 265.64 218.81C257.01 218.81 250.02 211.81 250.02 203.19V171.94C250.02 163.31 243.02 156.32 234.4 156.32H203.15C194.52 156.32 187.53 149.32 187.53 140.7C187.53 132.07 194.53 125.07 203.15 125.07H265.65C274.28 125.07 281.27 132.07 281.27 140.69C281.27 149.32 288.27 156.32 296.89 156.32C305.52 156.32 312.51 163.32 312.51 171.94L312.5 171.93Z" fill="black"/>
<path d="M343.75 296.92V421.89C343.75 430.51 336.76 437.5 328.14 437.5H328.11C319.49 437.5 312.5 430.51 312.5 421.89V359.39C312.5 350.77 305.51 343.78 296.89 343.78H296.86C288.24 343.78 281.25 336.79 281.25 328.17V296.92C281.25 288.3 288.24 281.31 296.86 281.31H328.14C336.76 281.31 343.75 288.3 343.75 296.92Z" fill="black"/>
<path d="M390.64 281.31H390.61C381.989 281.31 375 288.299 375 296.92V390.64C375 399.261 381.989 406.25 390.61 406.25H390.64C399.261 406.25 406.25 399.261 406.25 390.64V296.92C406.25 288.299 399.261 281.31 390.64 281.31Z" fill="black"/>
<path d="M234.39 343.78H234.36C225.739 343.78 218.75 350.769 218.75 359.39C218.75 368.011 225.739 375 234.36 375H234.39C243.011 375 250 368.011 250 359.39C250 350.769 243.011 343.78 234.39 343.78Z" fill="black"/>
<path d="M500 484.36V484.39C500 493.01 493.01 500 484.39 500H390.61C381.99 500 375 493.01 375 484.39V484.36C375 475.74 381.99 468.75 390.61 468.75H421.89C430.51 468.75 437.5 461.76 437.5 453.14V453.11C437.5 444.49 444.49 437.5 453.11 437.5H453.14C461.76 437.5 468.75 444.49 468.75 453.11V453.14C468.75 461.76 475.74 468.75 484.36 468.75H484.39C493.01 468.75 500 475.74 500 484.36Z" fill="black"/>
<path d="M250 234.49C250 243.12 243 250.12 234.38 250.12H140.63C132 250.12 125.01 243.12 125.01 234.5C125.01 225.87 132.01 218.87 140.63 218.87H171.88C180.51 218.87 187.5 211.87 187.5 203.25C187.5 194.62 194.5 187.62 203.12 187.62C211.75 187.62 218.74 194.62 218.74 203.24C218.74 211.87 225.74 218.87 234.36 218.87C242.99 218.87 249.98 225.87 249.98 234.49H250Z" fill="black"/>
<path d="M499.97 296.92V296.95C499.97 305.57 492.98 312.56 484.36 312.56C475.74 312.56 468.75 319.55 468.75 328.17C468.75 336.79 461.76 343.78 453.14 343.78H453.11C444.49 343.78 437.5 336.79 437.5 328.17V296.92C437.5 288.3 444.49 281.31 453.11 281.31H484.36C492.98 281.31 499.97 288.3 499.97 296.92Z" fill="black"/>
<path d="M266.66 375.01H266.63C258.009 375.01 251.02 381.999 251.02 390.62V421.87C251.02 430.491 258.009 437.48 266.63 437.48H266.66C275.281 437.48 282.27 430.491 282.27 421.87V390.62C282.27 381.999 275.281 375.01 266.66 375.01Z" fill="black"/>
<path d="M468.75 203.18V234.49C468.75 243.12 461.75 250.11 453.13 250.11C444.5 250.11 437.51 243.11 437.51 234.49V234.43C437.51 225.8 430.51 218.81 421.89 218.81C413.26 218.81 406.27 225.81 406.27 234.43V234.49C406.27 243.12 399.27 250.11 390.65 250.11H328.15C319.52 250.11 312.53 243.11 312.53 234.49C312.53 225.86 319.53 218.86 328.15 218.86H359.4C368.03 218.86 375.02 211.86 375.02 203.24V203.18C375.02 194.55 382.02 187.56 390.64 187.56H453.14C461.77 187.56 468.76 194.56 468.76 203.18H468.75Z" fill="black"/>
<path d="M484.39 375H453.11C444.489 375 437.5 381.989 437.5 390.61V390.64C437.5 399.261 444.489 406.25 453.11 406.25H484.39C493.011 406.25 500 399.261 500 390.64V390.61C500 381.989 493.011 375 484.39 375Z" fill="black"/>
<path d="M343.75 15.68V140.68C343.75 149.31 350.75 156.3 359.37 156.3H484.37C493 156.3 499.99 149.3 499.99 140.68V15.68C499.99 7.05 492.99 0.0599976 484.37 0.0599976H359.37C350.74 0.0599976 343.75 7.06 343.75 15.68ZM453.13 125.06H390.63C382 125.06 375.01 118.06 375.01 109.44V46.94C375.01 38.31 382.01 31.32 390.63 31.32H453.13C461.76 31.32 468.75 38.32 468.75 46.94V109.44C468.75 118.07 461.75 125.06 453.13 125.06Z" fill="black"/>
<path d="M421.88 62.56H421.87C413.243 62.56 406.25 69.5533 406.25 78.18V78.19C406.25 86.8167 413.243 93.81 421.87 93.81H421.88C430.507 93.81 437.5 86.8167 437.5 78.19V78.18C437.5 69.5533 430.507 62.56 421.88 62.56Z" fill="black"/>
</g>
<defs>
<clipPath id="clip0_31_3">
<rect width="500" height="500" fill="white"/>
</clipPath>
</defs>
</svg>
