<svg width="118" height="45" viewBox="0 0 118 45" fill="none" xmlns="http://www.w3.org/2000/svg">
<path d="M6.86001 13.54V29.58C6.86001 30.85 6.97001 31.99 7.19001 33.01C7.41001 34.02 7.82001 34.89 8.41001 35.6C9.01001 36.32 9.81001 36.87 10.82 37.27C11.83 37.67 13.13 37.87 14.73 37.87C17.59 37.87 19.76 37.09 21.23 35.51C22.7 33.94 23.44 31.6 23.44 28.51V27.79H25.83V28.45C25.83 30.8 25.61 32.94 25.17 34.89C24.73 36.84 24.01 38.51 22.99 39.9C21.98 41.29 20.64 42.37 18.99 43.12C17.34 43.88 15.3 44.25 12.88 44.25C10.73 44.25 8.86001 43.99 7.25001 43.47C5.64001 42.95 4.29001 42.13 3.20001 40.99C2.11001 39.86 1.30001 38.4 0.79001 36.61C0.27001 34.82 0.0100098 32.67 0.0100098 30.17V13.54H6.87001H6.86001ZM30.23 13.54V43.35H23.43V13.54H30.23Z" fill="black"/>
<path d="M36.19 43.35V13.54H43.05V43.35H36.19ZM59.62 43.35V27.31C59.62 26.04 59.5 24.9 59.26 23.88C59.02 22.86 58.61 22 58.04 21.29C57.46 20.57 56.66 20.02 55.63 19.62C54.6 19.22 53.28 19.02 51.69 19.02C48.83 19.02 46.67 19.81 45.22 21.38C43.77 22.95 43.04 25.29 43.04 28.38V29.1H40.59V28.45C40.59 26.1 40.82 23.96 41.28 22.01C41.74 20.06 42.47 18.4 43.49 17C44.5 15.61 45.84 14.53 47.49 13.78C49.14 13.02 51.16 12.65 53.54 12.65C55.73 12.65 57.62 12.91 59.23 13.43C60.84 13.95 62.18 14.77 63.25 15.91C64.32 17.05 65.12 18.5 65.64 20.29C66.16 22.08 66.41 24.23 66.41 26.73V43.37H59.61L59.62 43.35Z" fill="black"/>
<path d="M71.76 1.1C72.46 0.36 73.6 0 75.19 0C76.78 0 77.92 0.37 78.62 1.1C79.32 1.83 79.66 2.96 79.66 4.47C79.66 5.98 79.31 7.1 78.62 7.84C77.93 8.58 76.78 8.94 75.19 8.94C73.6 8.94 72.46 8.57 71.76 7.84C71.06 7.1 70.72 5.98 70.72 4.47C70.72 2.96 71.07 1.84 71.76 1.1ZM71.79 13.53H78.65V43.34H71.79V13.54V13.53Z" fill="black"/>
<path d="M87.66 13.11V33.3H97.73V43.35H117.89V13.11H87.65H87.66ZM107.82 33.27H97.73V23.2H107.82V33.27ZM91.02 40H94.36V36.66H91.02V40Z" fill="black"/>
</svg>
