<svg width="132" height="88" viewBox="0 0 132 88" fill="none" xmlns="http://www.w3.org/2000/svg">
<path d="M9.74 14.16V30.93C9.74 32.26 9.85 33.45 10.08 34.51C10.31 35.57 10.73 36.48 11.36 37.22C11.98 37.97 12.82 38.55 13.89 38.97C14.95 39.39 16.31 39.59 17.97 39.59C20.96 39.59 23.23 38.77 24.77 37.13C26.31 35.49 27.08 33.05 27.08 29.8V29.05H29.57V29.74C29.57 32.19 29.34 34.44 28.88 36.47C28.42 38.5 27.66 40.25 26.6 41.71C25.54 43.17 24.15 44.29 22.42 45.08C20.69 45.87 18.56 46.27 16.03 46.27C13.79 46.27 11.82 46 10.14 45.46C8.46 44.92 7.04 44.06 5.9 42.87C4.76 41.69 3.91 40.16 3.37 38.29C2.83 36.42 2.56 34.17 2.56 31.56V14.16H9.73H9.74ZM34.18 14.16V45.34H27.07V14.16H34.18Z" fill="black"/>
<path d="M40.42 45.33V14.16H47.59V45.34H40.42V45.33ZM64.93 45.33V28.56C64.93 27.23 64.81 26.04 64.56 24.98C64.31 23.92 63.88 23.01 63.28 22.27C62.68 21.52 61.84 20.94 60.75 20.52C59.67 20.1 58.3 19.89 56.63 19.89C53.64 19.89 51.38 20.71 49.86 22.35C48.34 23.99 47.58 26.43 47.58 29.68V30.43H45.02V29.75C45.02 27.3 45.26 25.05 45.74 23.01C46.22 20.98 46.99 19.23 48.05 17.77C49.11 16.31 50.5 15.19 52.23 14.4C53.95 13.61 56.06 13.21 58.56 13.21C60.85 13.21 62.83 13.48 64.52 14.02C66.2 14.56 67.61 15.42 68.73 16.61C69.85 17.8 70.68 19.32 71.22 21.19C71.76 23.06 72.03 25.31 72.03 27.92V45.32H64.92L64.93 45.33Z" fill="black"/>
<path d="M77.62 1.15C78.35 0.38 79.54 0 81.21 0C82.88 0 84.07 0.39 84.79 1.15C85.51 1.91 85.88 3.09 85.88 4.67C85.88 6.25 85.52 7.42 84.79 8.19C84.06 8.96 82.87 9.34 81.21 9.34C79.55 9.34 78.35 8.95 77.62 8.19C76.89 7.42 76.53 6.25 76.53 4.67C76.53 3.09 76.89 1.92 77.62 1.15ZM77.65 14.15H84.82V45.33H77.65V14.16V14.15Z" fill="black"/>
<path d="M7.00001 66.92C7.00001 67.59 7.23001 68.13 7.69001 68.54C8.15001 68.95 8.69001 69.16 9.31001 69.16H20.78C22.9 69.16 24.77 69.81 26.39 71.09C28.01 72.38 29.09 74.04 29.63 76.08C29.84 76.83 29.94 77.6 29.94 78.39C29.94 80.93 29.05 83.09 27.26 84.87C25.47 86.65 23.31 87.55 20.78 87.55H0.0800073V84.12C0.0800073 83.17 0.410007 82.34 1.08001 81.66C1.75001 80.98 2.55001 80.63 3.51001 80.63H20.72C21.34 80.63 21.88 80.42 22.34 80.01C22.8 79.6 23.05 79.05 23.09 78.39C23.05 77.72 22.82 77.18 22.4 76.77C21.94 76.31 21.4 76.09 20.78 76.09H9.24001C6.70001 76.09 4.54001 75.2 2.75001 73.41C1.59001 72.25 0.800007 70.83 0.380007 69.17C0.170007 68.46 0.0700073 67.72 0.0700073 66.93C0.150007 64.31 1.09001 62.12 2.88001 60.35C4.67001 58.58 6.83001 57.7 9.36001 57.7H29.94V61.13C29.94 62.09 29.61 62.9 28.94 63.56C28.27 64.22 27.46 64.56 26.51 64.56H9.25001C8.63001 64.56 8.09001 64.79 7.63001 65.25C7.21001 65.71 7.01001 66.27 7.01001 66.93L7.00001 66.92Z" fill="#3C5EAA"/>
<path d="M55.7 74.9C57.7 74.9 59.08 75.77 59.85 77.52C60.62 79.27 60.38 80.95 59.13 82.57C56.14 85.9 52.44 87.56 48.03 87.56C43.87 87.56 40.34 86.1 37.43 83.19C34.52 80.28 33.07 76.75 33.07 72.59C33.07 68.43 34.52 64.96 37.43 62.05C40.34 59.14 43.87 57.68 48.03 57.68C52.44 57.68 56.14 59.34 59.13 62.67C60.38 64.25 60.62 65.92 59.85 67.69C59.08 69.46 57.7 70.34 55.7 70.34C55.2 68.64 54.24 67.24 52.83 66.16C51.42 65.08 49.82 64.54 48.03 64.54C45.79 64.54 43.88 65.33 42.32 66.91C40.76 68.49 39.98 70.38 39.98 72.58C39.98 74.78 40.76 76.73 42.32 78.29C43.88 79.85 45.78 80.63 48.03 80.63C49.82 80.63 51.42 80.1 52.83 79.04C54.24 77.98 55.2 76.6 55.7 74.89V74.9Z" fill="#3C5EAA"/>
<path d="M93.24 71.47C93.28 71.85 93.3 72.22 93.3 72.59V87.56H88.75C87.46 87.56 86.69 86.77 86.44 85.19C84.03 86.77 81.35 87.56 78.4 87.56C74.24 87.56 70.71 86.1 67.8 83.19C65.02 80.36 63.56 76.83 63.44 72.59C63.56 68.39 65.03 64.89 67.84 62.08C70.65 59.27 74.15 57.81 78.35 57.68C82.59 57.76 86.12 59.22 88.95 62.05C91.49 64.58 92.92 67.72 93.25 71.46L93.24 71.47ZM78.52 80.64C80.72 80.56 82.56 79.78 84.04 78.3C85.52 76.82 86.32 74.98 86.44 72.78C86.4 70.45 85.61 68.5 84.07 66.92C82.49 65.34 80.6 64.55 78.4 64.55C76.2 64.55 74.24 65.34 72.66 66.92C71.12 68.5 70.35 70.39 70.35 72.59C70.35 74.79 71.12 76.75 72.66 78.33C74.24 79.87 76.19 80.64 78.52 80.64Z" fill="#EFC245"/>
<path d="M99.53 87.56V56.38H106.7V87.56H99.53ZM124.04 87.56V70.79C124.04 69.46 123.92 68.26 123.67 67.2C123.42 66.14 122.99 65.24 122.39 64.49C121.79 63.74 120.95 63.16 119.86 62.74C118.78 62.32 117.41 62.12 115.74 62.12C112.75 62.12 110.49 62.94 108.97 64.58C107.45 66.22 106.69 68.66 106.69 71.91V72.66H104.13V71.98C104.13 69.53 104.37 67.28 104.85 65.25C105.33 63.22 106.1 61.47 107.16 60.01C108.22 58.56 109.61 57.43 111.34 56.64C113.06 55.85 115.17 55.46 117.67 55.46C119.96 55.46 121.94 55.73 123.63 56.27C125.31 56.81 126.72 57.67 127.84 58.86C128.96 60.04 129.79 61.57 130.33 63.44C130.87 65.31 131.14 67.56 131.14 70.18V87.58H124.03L124.04 87.56Z" fill="#EFC245"/>
</svg>
