<svg width="253" height="45" viewBox="0 0 253 45" fill="none" xmlns="http://www.w3.org/2000/svg">
<g clip-path="url(#clip0_34_5)">
<path d="M0 1.76001V30.43H14.3V44.7H42.93V1.76001H0ZM28.63 30.39H14.3V16.09H28.63V30.39ZM4.77 39.95H9.51V35.21H4.77V39.95Z" fill="black"/>
<path d="M81.08 12.5V40.05H74.8V36.23C74.67 36.45 74.53 36.66 74.38 36.86C73.45 38.14 72.21 39.13 70.69 39.83C69.17 40.53 67.28 40.88 65.04 40.88C63.06 40.88 61.32 40.64 59.84 40.16C58.35 39.68 57.1 38.92 56.09 37.88C55.08 36.83 54.33 35.48 53.86 33.83C53.38 32.17 53.14 30.19 53.14 27.88V12.5H59.48V27.32C59.48 28.5 59.58 29.56 59.78 30.49C59.98 31.43 60.36 32.23 60.91 32.89C61.46 33.55 62.2 34.06 63.14 34.43C64.08 34.8 65.28 34.98 66.75 34.98C69.4 34.98 71.4 34.26 72.76 32.81C74.11 31.36 74.8 29.2 74.8 26.33V12.5H81.08Z" fill="black"/>
<path d="M114.52 24.68V40.05H108.24V25.23C108.24 24.06 108.13 23 107.91 22.06C107.69 21.13 107.31 20.33 106.78 19.67C106.25 19 105.5 18.49 104.55 18.12C103.59 17.76 102.38 17.57 100.91 17.57C98.27 17.57 96.27 18.3 94.93 19.75C93.59 21.2 92.92 23.36 92.92 26.22V40.05H86.59V12.5H92.92V16.32C93.05 16.11 93.19 15.9 93.34 15.7C94.27 14.41 95.5 13.42 97.03 12.72C98.55 12.02 100.42 11.68 102.62 11.68C104.64 11.68 106.39 11.92 107.88 12.39C109.37 12.87 110.61 13.63 111.6 14.68C112.59 15.73 113.33 17.08 113.8 18.73C114.28 20.38 114.52 22.36 114.52 24.68Z" fill="black"/>
<path d="M119.45 1.02C120.09 0.34 121.15 0 122.62 0C124.09 0 125.15 0.34 125.79 1.02C126.43 1.7 126.75 2.74 126.75 4.13C126.75 5.52 126.43 6.56 125.79 7.24C125.15 7.92 124.09 8.26 122.62 8.26C121.15 8.26 120.09 7.92 119.45 7.24C118.81 6.56 118.49 5.52 118.49 4.13C118.49 2.74 118.81 1.7 119.45 1.02ZM119.48 12.51H125.82V40.06H119.48V12.51Z" fill="black"/>
<path d="M131.13 16.2C131.66 15.17 132.47 14.32 133.55 13.64C134.63 12.96 135.97 12.46 137.57 12.15C139.17 11.84 141.03 11.68 143.16 11.68C147.93 11.68 151.44 12.48 153.68 14.08C155.92 15.68 157.04 18.28 157.04 21.88H151.25C151.25 20.92 151.06 20.14 150.67 19.54C150.28 18.93 149.71 18.45 148.93 18.08C148.16 17.71 147.19 17.45 146.04 17.28C144.88 17.11 143.55 17.03 142.05 17.03C140.73 17.03 139.66 17.11 138.85 17.28C138.04 17.45 137.41 17.67 136.95 17.94C136.49 18.22 136.18 18.52 136.01 18.85C135.84 19.18 135.76 19.51 135.76 19.84C135.76 20.24 135.92 20.61 136.23 20.94C136.54 21.27 137.04 21.59 137.72 21.9C138.4 22.21 139.27 22.51 140.34 22.78C141.4 23.06 142.71 23.34 144.25 23.63C146.23 23.96 148.02 24.29 149.62 24.62C151.22 24.95 152.6 25.42 153.75 26.03C154.91 26.64 155.8 27.44 156.42 28.45C157.04 29.46 157.36 30.79 157.36 32.45C157.36 35.5 156.28 37.67 154.11 38.95C151.94 40.24 148.77 40.88 144.58 40.88C139.58 40.88 135.94 40.08 133.64 38.48C131.34 36.88 130.2 34.28 130.2 30.68H135.99C135.99 31.6 136.21 32.37 136.65 32.99C137.09 33.61 137.72 34.11 138.55 34.48C139.38 34.85 140.38 35.11 141.55 35.28C142.73 35.45 144.01 35.53 145.41 35.53C146.59 35.53 147.59 35.46 148.41 35.31C149.24 35.16 149.91 34.96 150.42 34.7C150.93 34.44 151.3 34.14 151.52 33.79C151.74 33.44 151.85 33.07 151.85 32.66C151.85 32.04 151.67 31.53 151.3 31.15C150.93 30.76 150.37 30.46 149.62 30.24C148.87 30.02 147.93 29.83 146.81 29.66C145.69 29.49 144.41 29.28 142.98 29.03C141.47 28.81 139.97 28.52 138.46 28.15C136.95 27.78 135.59 27.27 134.36 26.61C133.13 25.95 132.15 25.09 131.41 24.02C130.67 22.96 130.31 21.6 130.31 19.94C130.31 18.47 130.58 17.22 131.11 16.19L131.13 16.2Z" fill="black"/>
<path d="M181.43 12.59C183.1 13.2 184.5 14.04 185.62 15.12C186.74 16.2 187.59 17.46 188.18 18.89C188.77 20.32 189.06 21.87 189.06 23.52H183.27C183.27 22.64 183.11 21.84 182.8 21.12C182.49 20.4 182 19.78 181.34 19.25C180.68 18.72 179.87 18.3 178.92 18.01C177.96 17.72 176.84 17.57 175.56 17.57C174.35 17.57 173.23 17.72 172.2 18.01C171.17 18.3 170.3 18.8 169.58 19.5C168.86 20.2 168.3 21.09 167.9 22.17C167.5 23.25 167.29 24.59 167.29 26.17C167.29 27.75 167.51 29.22 167.95 30.36C168.39 31.5 169 32.41 169.77 33.09C170.54 33.77 171.46 34.26 172.52 34.55C173.58 34.84 174.72 34.99 175.94 34.99C177.26 34.99 178.39 34.84 179.33 34.55C180.27 34.26 181.04 33.84 181.64 33.31C182.25 32.78 182.7 32.15 183.02 31.44C183.33 30.72 183.49 29.92 183.49 29.04H189.22C189.22 30.69 188.95 32.24 188.42 33.67C187.89 35.1 187.07 36.36 185.97 37.44C184.87 38.52 183.46 39.37 181.75 39.97C180.04 40.58 178.03 40.88 175.72 40.88C170.8 40.88 167.06 39.65 164.51 37.19C161.96 34.73 160.68 31.09 160.68 26.28C160.68 21.47 161.86 17.79 164.23 15.34C166.6 12.9 170.39 11.68 175.61 11.68C177.81 11.68 179.75 11.98 181.42 12.59H181.43Z" fill="black"/>
<path d="M218.8 17.85C218.23 16.34 217.37 15.14 216.23 14.24C215.09 13.34 213.67 12.69 211.96 12.28C210.26 11.88 208.24 11.68 205.93 11.68C203.95 11.68 202.15 11.87 200.53 12.25C198.91 12.64 197.55 13.25 196.43 14.07C195.3 14.9 194.44 15.97 193.84 17.27C193.23 18.57 192.93 20.16 192.93 22.03H198.71C198.71 20.86 198.94 19.94 199.4 19.28C199.86 18.62 200.44 18.12 201.14 17.79C201.83 17.46 202.61 17.25 203.45 17.16C204.3 17.07 205.1 17.02 205.87 17.02C206.64 17.02 207.47 17.08 208.35 17.19C209.24 17.3 210.04 17.54 210.78 17.9C211.51 18.27 212.12 18.81 212.6 19.53C213.07 20.24 213.31 21.23 213.31 22.47V22.6L203.56 23.58C201.61 23.8 199.89 24.11 198.38 24.51C196.87 24.92 195.61 25.47 194.58 26.17C193.55 26.87 192.77 27.71 192.24 28.7C191.7 29.69 191.44 30.89 191.44 32.28C191.44 33.97 191.74 35.37 192.35 36.47C192.95 37.57 193.79 38.45 194.85 39.12C195.92 39.78 197.2 40.24 198.68 40.49C200.17 40.75 201.8 40.88 203.56 40.88C206.02 40.88 207.96 40.59 209.37 40.02C210.79 39.46 211.84 38.69 212.54 37.74C212.85 37.32 213.1 36.87 213.31 36.4V40.05H219.65V23.41C219.65 21.21 219.36 19.35 218.8 17.85ZM212.9 32.09C212.59 32.7 212.08 33.25 211.38 33.74C210.69 34.24 209.77 34.66 208.63 35.01C207.49 35.36 206.08 35.53 204.39 35.53C203.21 35.53 202.22 35.45 201.41 35.29C200.6 35.12 199.95 34.89 199.46 34.6C198.96 34.3 198.6 33.96 198.38 33.55C198.16 33.15 198.05 32.69 198.05 32.17C198.05 31.48 198.22 30.89 198.55 30.41C198.88 29.93 199.34 29.54 199.92 29.22C200.51 28.91 201.19 28.67 201.96 28.48C202.73 28.3 203.58 28.15 204.5 28.04L213.31 27.17V30.94C213.25 31.3 213.11 31.68 212.9 32.09Z" fill="black"/>
<path d="M252.54 24.68V40.05H246.26V25.23C246.26 24.06 246.15 23 245.93 22.06C245.71 21.13 245.33 20.33 244.8 19.67C244.27 19 243.53 18.49 242.57 18.12C241.61 17.76 240.4 17.57 238.93 17.57C236.29 17.57 234.3 18.3 232.96 19.75C231.61 21.2 230.95 23.36 230.95 26.22V40.05H224.61V12.5H230.95V16.3C231.08 16.09 231.22 15.89 231.36 15.7C232.29 14.41 233.53 13.42 235.05 12.72C236.57 12.02 238.44 11.68 240.64 11.68C242.66 11.68 244.42 11.92 245.9 12.39C247.39 12.87 248.63 13.63 249.62 14.68C250.61 15.73 251.35 17.08 251.83 18.73C252.3 20.38 252.54 22.36 252.54 24.68Z" fill="black"/>
</g>
<defs>
<clipPath id="clip0_34_5">
<rect width="252.54" height="44.69" fill="white"/>
</clipPath>
</defs>
</svg>
