<svg width="120" height="45" viewBox="0 0 120 45" fill="none" xmlns="http://www.w3.org/2000/svg">
<path d="M6.9661 13.7695V30.0814C6.9661 31.3729 7.07797 32.5322 7.30169 33.5695C7.52542 34.5966 7.94237 35.4814 8.54237 36.2034C9.15254 36.9356 9.9661 37.4949 10.9932 37.9017C12.0203 38.3085 13.3424 38.5119 14.9695 38.5119C17.878 38.5119 20.0847 37.7187 21.5797 36.1119C23.0746 34.5153 23.8271 32.1356 23.8271 28.9932V28.261H26.2576V28.9322C26.2576 31.322 26.0339 33.4983 25.5864 35.4814C25.139 37.4644 24.4068 39.1627 23.3695 40.5763C22.3424 41.9898 20.9797 43.0881 19.3017 43.8509C17.6237 44.6237 15.5492 45 13.0881 45C10.9017 45 9 44.7356 7.36271 44.2068C5.72542 43.678 4.35254 42.8441 3.24407 41.6848C2.13559 40.5356 1.31186 39.0509 0.79322 37.2305C0.264407 35.4102 0 33.2237 0 30.6814V13.7695H6.97627H6.9661ZM30.7322 13.7695V44.0848H23.8169V13.7695H30.7322Z" fill="black"/>
<path d="M36.7932 44.0847V13.7695H43.7695V44.0847H36.7932ZM60.6203 44.0847V27.7729C60.6203 26.4814 60.4983 25.322 60.2542 24.2847C60.0102 23.2475 59.5932 22.3729 59.0136 21.6509C58.4237 20.9186 57.6102 20.3593 56.5627 19.9525C55.5152 19.5458 54.1729 19.3424 52.5559 19.3424C49.6475 19.3424 47.4508 20.1458 45.9763 21.7424C44.5017 23.339 43.7593 25.7186 43.7593 28.861V29.5932H41.2678V28.9322C41.2678 26.5424 41.5017 24.3661 41.9695 22.3831C42.4373 20.4 43.1797 18.7119 44.2169 17.2881C45.2441 15.8746 46.6068 14.7763 48.2847 14.0136C49.9627 13.2407 52.0169 12.8644 54.4373 12.8644C56.6644 12.8644 58.5864 13.1288 60.2237 13.6576C61.861 14.1864 63.2237 15.0203 64.3119 16.1797C65.4 17.339 66.2136 18.8136 66.7424 20.6339C67.2712 22.4542 67.5254 24.6407 67.5254 27.1831V44.1051H60.6102L60.6203 44.0847Z" fill="black"/>
<path d="M72.9661 1.11864C73.678 0.366102 74.8373 0 76.4542 0C78.0712 0 79.2305 0.376271 79.9424 1.11864C80.6542 1.86102 81 3.01017 81 4.54576C81 6.08136 80.6441 7.22034 79.9424 7.97288C79.2407 8.72543 78.0712 9.09153 76.4542 9.09153C74.8373 9.09153 73.678 8.71526 72.9661 7.97288C72.2542 7.22034 71.9085 6.08136 71.9085 4.54576C71.9085 3.01017 72.2644 1.87119 72.9661 1.11864ZM72.9966 13.7593H79.9729V44.0746H72.9966V13.7695V13.7593Z" fill="black"/>
<path d="M89.1356 13.3322V33.8644H99.3763V44.0847H119.878V13.3322H89.1254H89.1356ZM109.637 33.8339H99.3763V23.5932H109.637V33.8339ZM92.5526 40.6779H95.9492V37.2813H92.5526V40.6779Z" fill="#3C5EAA"/>
</svg>
