<svg width="40" height="40" viewBox="0 0 40 40" fill="none" xmlns="http://www.w3.org/2000/svg">
<mask id="mask0_7_8" style="mask-type:alpha" maskUnits="userSpaceOnUse" x="0" y="0" width="40" height="40">
<rect width="40" height="40" fill="white"/>
</mask>
<g mask="url(#mask0_7_8)">
<path d="M19.968 34.1666C16.359 34.1666 13.2137 32.9786 10.5321 30.6025C7.85047 28.2265 6.30668 25.2478 5.90071 21.6667H8.45192C8.87286 24.5449 10.1683 26.9311 12.3381 28.8253C14.508 30.7196 17.0513 31.6667 19.968 31.6667C23.218 31.6667 25.9749 30.5347 28.2388 28.2708C30.5027 26.0069 31.6346 23.25 31.6346 20C31.6346 16.75 30.5027 13.9931 28.2388 11.7292C25.9749 9.46528 23.218 8.33333 19.968 8.33333C18.1475 8.33333 16.4413 8.73771 14.8494 9.54646C13.2575 10.3552 11.8868 11.4679 10.7372 12.8846H15.0962V15.3845H6.63475V6.92308H9.13467V10.8718C10.4872 9.27569 12.1069 8.03692 13.9936 7.1555C15.8804 6.27408 17.8718 5.83337 19.968 5.83337C21.9338 5.83337 23.7756 6.20518 25.4936 6.94879C27.2115 7.69237 28.7093 8.70304 29.9871 9.98079C31.2649 11.2586 32.2756 12.7564 33.0192 14.4744C33.7628 16.1923 34.1345 18.0342 34.1345 20C34.1345 21.9658 33.7628 23.8077 33.0192 25.5256C32.2756 27.2436 31.2649 28.7414 29.9871 30.0192C28.7093 31.297 27.2115 32.3076 25.4936 33.0512C23.7756 33.7948 21.9338 34.1666 19.968 34.1666ZM24.9712 26.7115L18.766 20.5064V11.6667H21.266V19.4936L26.7275 24.9552L24.9712 26.7115Z" fill="white"/>
</g>
</svg>
