<svg width="40" height="40" viewBox="0 0 40 40" fill="none" xmlns="http://www.w3.org/2000/svg">
<mask id="mask0_6_132" style="mask-type:alpha" maskUnits="userSpaceOnUse" x="0" y="0" width="40" height="40">
<rect width="40" height="40" fill="white"/>
</mask>
<g mask="url(#mask0_6_132)">
<path d="M8.33333 35C7.41667 35 6.63194 34.6736 5.97917 34.0208C5.32639 33.3681 5 32.5833 5 31.6667V25H8.33333V31.6667H15V35H8.33333ZM25 35V31.6667H31.6667V25H35V31.6667C35 32.5833 34.6736 33.3681 34.0208 34.0208C33.3681 34.6736 32.5833 35 31.6667 35H25ZM5 15V8.33333C5 7.41667 5.32639 6.63194 5.97917 5.97917C6.63194 5.32639 7.41667 5 8.33333 5H15V8.33333H8.33333V15H5ZM31.6667 15V8.33333H25V5H31.6667C32.5833 5 33.3681 5.32639 34.0208 5.97917C34.6736 6.63194 35 7.41667 35 8.33333V15H31.6667ZM20 25C18.6111 25 17.4306 24.5139 16.4583 23.5417C15.4861 22.5694 15 21.3889 15 20C15 18.6111 15.4861 17.4306 16.4583 16.4583C17.4306 15.4861 18.6111 15 20 15C21.3889 15 22.5694 15.4861 23.5417 16.4583C24.5139 17.4306 25 18.6111 25 20C25 21.3889 24.5139 22.5694 23.5417 23.5417C22.5694 24.5139 21.3889 25 20 25Z" fill="white"/>
</g>
</svg>
