<svg width="20" height="20" viewBox="0 0 20 20" fill="none" xmlns="http://www.w3.org/2000/svg">
<mask id="mask0_7_80" style="mask-type:alpha" maskUnits="userSpaceOnUse" x="0" y="0" width="20" height="20">
<rect width="20" height="20" fill="#D9D9D9"/>
</mask>
<g mask="url(#mask0_7_80)">
<path d="M5 19.1667C4.54167 19.1667 4.14931 19.0035 3.82292 18.6771C3.49653 18.3507 3.33334 17.9583 3.33334 17.5V8.33334C3.33334 7.87501 3.49653 7.48265 3.82292 7.15626C4.14931 6.82987 4.54167 6.66668 5 6.66668H7.5V8.33334H5V17.5H15V8.33334H12.5V6.66668H15C15.4583 6.66668 15.8507 6.82987 16.1771 7.15626C16.5035 7.48265 16.6667 7.87501 16.6667 8.33334V17.5C16.6667 17.9583 16.5035 18.3507 16.1771 18.6771C15.8507 19.0035 15.4583 19.1667 15 19.1667H5ZM9.16667 13.3333V4.02084L7.83334 5.35418L6.66667 4.16668L10 0.833344L13.3333 4.16668L12.1667 5.35418L10.8333 4.02084V13.3333H9.16667Z" fill="black"/>
</g>
</svg>
