<svg width="20" height="20" viewBox="0 0 20 20" fill="none" xmlns="http://www.w3.org/2000/svg">
<mask id="mask0_7_23" style="mask-type:alpha" maskUnits="userSpaceOnUse" x="0" y="0" width="20" height="20">
<rect width="20" height="20" fill="#D9D9D9"/>
</mask>
<g mask="url(#mask0_7_23)">
<path d="M9.16667 14.1667H5.83333C4.68056 14.1667 3.69792 13.7604 2.88542 12.9479C2.07292 12.1354 1.66667 11.1528 1.66667 9.99999C1.66667 8.84722 2.07292 7.86458 2.88542 7.05208C3.69792 6.23958 4.68056 5.83333 5.83333 5.83333H9.16667V7.49999H5.83333C5.13889 7.49999 4.54861 7.74305 4.0625 8.22916C3.57639 8.71527 3.33333 9.30555 3.33333 9.99999C3.33333 10.6944 3.57639 11.2847 4.0625 11.7708C4.54861 12.2569 5.13889 12.5 5.83333 12.5H9.16667V14.1667ZM6.66667 10.8333V9.16666H13.3333V10.8333H6.66667ZM10.8333 14.1667V12.5H14.1667C14.8611 12.5 15.4514 12.2569 15.9375 11.7708C16.4236 11.2847 16.6667 10.6944 16.6667 9.99999C16.6667 9.30555 16.4236 8.71527 15.9375 8.22916C15.4514 7.74305 14.8611 7.49999 14.1667 7.49999H10.8333V5.83333H14.1667C15.3194 5.83333 16.3021 6.23958 17.1146 7.05208C17.9271 7.86458 18.3333 8.84722 18.3333 9.99999C18.3333 11.1528 17.9271 12.1354 17.1146 12.9479C16.3021 13.7604 15.3194 14.1667 14.1667 14.1667H10.8333Z" fill="black"/>
</g>
</svg>
