<svg width="20" height="20" viewBox="0 0 20 20" fill="none" xmlns="http://www.w3.org/2000/svg">
<mask id="mask0_7_49" style="mask-type:alpha" maskUnits="userSpaceOnUse" x="0" y="0" width="20" height="20">
<rect width="20" height="20" fill="#D9D9D9"/>
</mask>
<g mask="url(#mask0_7_49)">
<path d="M10 10C10.4583 10 10.8507 9.83681 11.1771 9.51042C11.5035 9.18403 11.6667 8.79167 11.6667 8.33334C11.6667 7.875 11.5035 7.48264 11.1771 7.15626C10.8507 6.82987 10.4583 6.66667 10 6.66667C9.54167 6.66667 9.14931 6.82987 8.82292 7.15626C8.49653 7.48264 8.33333 7.875 8.33333 8.33334C8.33333 8.79167 8.49653 9.18403 8.82292 9.51042C9.14931 9.83681 9.54167 10 10 10ZM10 16.125C11.6944 14.5694 12.9514 13.1563 13.7708 11.8854C14.5903 10.6146 15 9.48612 15 8.5C15 6.98612 14.5174 5.74653 13.5521 4.78125C12.5868 3.81598 11.4028 3.33334 10 3.33334C8.59722 3.33334 7.41319 3.81598 6.44792 4.78125C5.48264 5.74653 5 6.98612 5 8.5C5 9.48612 5.40972 10.6146 6.22917 11.8854C7.04861 13.1563 8.30556 14.5694 10 16.125ZM10 18.3333C7.76389 16.4306 6.09375 14.6632 4.98958 13.0313C3.88542 11.3993 3.33333 9.88889 3.33333 8.5C3.33333 6.41667 4.00347 4.75695 5.34375 3.52084C6.68403 2.28473 8.23611 1.66667 10 1.66667C11.7639 1.66667 13.316 2.28473 14.6563 3.52084C15.9965 4.75695 16.6667 6.41667 16.6667 8.5C16.6667 9.88889 16.1146 11.3993 15.0104 13.0313C13.9062 14.6632 12.2361 16.4306 10 18.3333Z" fill="#1C1B1F"/>
</g>
</svg>
